<?xml version="1.0" encoding="UTF-8"?>
<svg id="Vrstva_2" data-name="Vrstva 2" xmlns="http://www.w3.org/2000/svg" viewBox="0 0 27.74 46.85">
  <defs>
    <style>
      .cls-1 {
        fill: #1d1d1b;
      }
    </style>
  </defs>
  <g id="Vrstva_1-2" data-name="Vrstva 1">
    <path class="cls-1" d="M2.21,4.29c6.05,6.2,12.1,12.39,18.15,18.59.65.66,1.32,1.64,2.09,2.14.87.57-.18-.16.24-.18-.15,0-.22.16-.38.24-1.54.72-3.06,1.74-4.45,2.7-3.05,2.11-5.69,4.61-8.12,7.4-2.24,2.56-4.58,5.58-7.91,6.74-1.27.44-2.12,1.71-1.75,3.08.34,1.24,1.79,2.19,3.08,1.75,3.68-1.28,6.44-3.86,8.98-6.73s5.16-5.81,8.42-8.04c2.95-2.02,9.1-4.33,6.58-9.04-.51-.96-1.44-1.75-2.2-2.52l-2.62-2.68-5.06-5.18L5.74.75C3.49-1.56-.04,1.98,2.21,4.29h0Z"/>
  </g>
</svg>