<?xml version="1.0" encoding="UTF-8"?>
<svg id="Vrstva_2" data-name="Vrstva 2" xmlns="http://www.w3.org/2000/svg" viewBox="0 0 35.81 43.68">
  <defs>
    <style>
      .cls-1 {
        fill: #1d1d1b;
      }
    </style>
  </defs>
  <g id="Vrstva_1-2" data-name="Vrstva 1">
    <path class="cls-1" d="M24.77.35C16.77,4.96,9.29,10.5,2.58,16.83c-1.77,1.67-3.41,3.81-2.12,6.33,1.03,2,3.5,3.26,5.29,4.51,3.93,2.75,7.95,5.37,12.06,7.85,4.64,2.8,9.38,5.42,14.21,7.86,2.86,1.45,5.4-2.86,2.52-4.32-7.66-3.88-15.1-8.2-22.25-12.96-1.8-1.2-3.59-2.43-5.35-3.69-.44-.31-.88-.63-1.32-.95-.07-.05-.72-.63-.76-.64,0,0-.04.76.03.79-.05-.02.28-.3.17-.24.42-.26.83-.82,1.2-1.16,2.97-2.79,6.08-5.44,9.34-7.88,3.73-2.79,7.63-5.35,11.67-7.67,2.79-1.6.27-5.93-2.52-4.32h0Z"/>
  </g>
</svg>