<?xml version="1.0" encoding="UTF-8"?>
<svg id="Vrstva_2" data-name="Vrstva 2" xmlns="http://www.w3.org/2000/svg" viewBox="0 0 53.04 45.74">
  <defs>
    <style>
      .cls-1 {
        fill: #6ec7d9;
      }

      .cls-2 {
        fill: #1d1d1b;
      }
    </style>
  </defs>
  <g id="Vrstva_1-2" data-name="Vrstva 1">
    <g>
      <g>
        <path class="cls-1" d="M12.01,28.76c-5.74-1.96-9.81-8-9.48-14.06.06-1.12.27-2.28.89-3.22.55-.84,1.38-1.45,2.19-2.04,4.46-3.24,9.29-6.48,14.79-6.94,4.74-.39,9.62,1.49,12.88,4.96s4.82,8.46,4.12,13.17c-.21,1.42-.64,2.85-1.57,3.94-1.07,1.25-2.67,1.9-4.24,2.41-6.79,2.25-14.1,2.89-21.18,1.87"/>
        <path class="cls-2" d="M12.68,26.35c-4.45-1.59-7.66-6.22-7.66-10.94,0-1.12.1-2.18.9-3.02,1.03-1.09,2.52-1.93,3.76-2.76,2.45-1.66,5.04-3.21,7.89-4.05,5.3-1.56,11.31.06,14.72,4.55,1.59,2.09,2.59,4.72,2.75,7.34s-.08,5.28-2.57,6.51c-2.97,1.47-6.7,2.12-9.96,2.52-3.77.46-7.66.47-11.42-.06-1.34-.19-2.68.32-3.08,1.75-.32,1.17.4,2.89,1.75,3.08,8.08,1.12,16.98.65,24.54-2.65,7.49-3.27,6.73-13.54,3.26-19.56C33.73,2.42,25.97-.97,18.49.24c-3.76.61-7.27,2.42-10.44,4.47S1.05,8.87.27,12.77c-1.57,7.86,3.76,15.79,11.07,18.4,1.27.45,2.74-.51,3.08-1.75.38-1.39-.47-2.62-1.75-3.08h0Z"/>
      </g>
      <path class="cls-2" d="M32.44,27.48c4.52,6.94,10.21,12.94,16.83,17.9,1.08.81,2.79.17,3.42-.9.75-1.28.19-2.61-.9-3.42-5.79-4.34-11.06-10.01-15.04-16.11-.74-1.13-2.21-1.6-3.42-.9-1.12.66-1.64,2.28-.9,3.42h0Z"/>
    </g>
  </g>
</svg>