<?xml version="1.0" encoding="UTF-8"?>
<svg id="Vrstva_2" data-name="Vrstva 2" xmlns="http://www.w3.org/2000/svg" viewBox="0 0 57.6 52.02">
  <defs>
    <style>
      .cls-1 {
        fill: #1d1d1b;
      }

      .cls-2 {
        fill: #fff;
      }
    </style>
  </defs>
  <g id="Vrstva_1-2" data-name="Vrstva 1">
    <g>
      <path class="cls-2" d="M17.35,48.62c-5.2-1.18-9.27-5.45-11.48-10.3s-2.81-10.26-3.21-15.57c-.34-4.6-.42-9.64,2.38-13.3,1.53-1.99,3.76-3.34,6.05-4.35,9.65-4.27,21.46-3.22,30.2,2.69,8.74,5.9,14.12,16.47,13.77,27.01-.08,2.24-.44,4.58-1.82,6.34-1.07,1.36-2.64,2.23-4.21,2.98-10.05,4.86-21.61,6.53-32.63,4.72"/>
      <path class="cls-1" d="M18.02,46.21c-10.22-2.47-12.2-14.65-12.85-23.46-.33-4.47-.61-9.68,2.99-12.98,3.22-2.95,8.42-4.28,12.66-4.65,9.46-.83,18.76,2.74,24.91,10.02,2.91,3.45,4.97,7.64,6.04,12.02.54,2.2.81,4.42.81,6.68,0,2.06-.09,4.56-1.64,6.12-1.84,1.85-4.84,2.84-7.23,3.73-2.82,1.05-5.73,1.86-8.69,2.43-5.88,1.14-12.03,1.25-17.95.3-1.33-.21-2.69.34-3.08,1.75-.33,1.19.41,2.86,1.75,3.08,6.29,1.01,12.59,1.02,18.88,0,5.86-.95,11.93-2.77,17.11-5.72,2.71-1.55,4.65-3.85,5.37-6.92.64-2.71.59-5.63.27-8.38-.64-5.36-2.46-10.55-5.43-15.07C45.65,5.63,34.99-.02,23.58,0c-5.56.01-11.43,1.32-16.22,4.21-2.51,1.52-4.63,3.62-5.83,6.32S0,16.07,0,18.94c.01,11.97,2.9,28.76,16.69,32.09,3.13.75,4.46-4.07,1.33-4.82h0Z"/>
    </g>
  </g>
</svg>