<?xml version="1.0" encoding="UTF-8"?>
<svg id="Vrstva_2" data-name="Vrstva 2" xmlns="http://www.w3.org/2000/svg" viewBox="0 0 599.8 31.53">
  <defs>
    <style>
      .cls-1 {
        fill: #1d1d1b;
      }
    </style>
  </defs>
  <g id="Vrstva_1-2" data-name="Vrstva 1">
    <path class="cls-1" d="M6.51,9.92c-.96-.97-1.53-2.34-1.29-3.72l-1.15,1.49c3.96-1.75,8.36-2.34,12.65-2.55,4.68-.23,9.38-.12,14.07-.11,10.08,0,20.15.02,30.23.03,20.24.02,40.48.04,60.71.06s40.31.04,60.46.06,40.31.04,60.46.06,40.31.04,60.46.06c20.24.02,40.48.04,60.71.06,20.15.02,40.31.04,60.46.06s40.31.04,60.46.06,40.31.04,60.46.06c9.98,0,19.96-.08,29.94.03,5.57.06,12.65.83,16.79,4.41,1.1.94,1.71,1.64,2.31,2.98.04.08.1.25.19.55s.18.63.24.95c.11.53.18,1.34.09,2.1-.39,3.39-3.07,6.15-5.95,7.71-3.72,2.02-8.2,2.24-12.34,2.27-4.96.03-9.93-.1-14.89-.15-20.15-.24-40.3-.47-60.45-.71-20.15-.24-40.3-.47-60.45-.71s-40.3-.47-60.45-.71-40.47-.48-60.7-.72c-20.15-.24-40.3-.47-60.45-.71-20.15-.24-40.3-.47-60.45-.71s-40.3-.47-60.45-.71c-20.15-.24-40.3-.47-60.45-.71-10.16-.12-20.32-.24-30.47-.36l-14.99-.18c-4.56-.05-9.16.06-13.71-.23-2.93-.18-6.03-.63-8.71-1.79-2.47-1.07-4.29-2.67-4.97-5.18-.84-3.1-5.66-1.79-4.82,1.33,1.97,7.29,9.66,9.71,16.36,10.46,4.25.48,8.58.33,12.85.38,5.16.06,10.32.12,15.49.18,20.73.24,41.47.49,62.2.73,20.65.24,41.3.49,61.95.73,20.73.24,41.47.49,62.2.73,20.65.24,41.3.49,61.95.73s41.3.49,61.95.73,41.47.49,62.2.73c20.65.24,41.3.49,61.95.73s41.47.49,62.2.73c10.32.12,20.65.24,30.97.36,8.87.1,18.82-.07,24.68-7.83,2.36-3.13,3.36-7.12,2.39-10.96-.79-3.16-2.91-5.69-5.55-7.52-5.41-3.76-12.76-4.61-19.17-4.63-20.74-.09-41.48-.04-62.21-.06-20.65-.02-41.31-.04-61.96-.06s-41.48-.04-62.21-.06c-20.65-.02-41.31-.04-61.96-.06-20.65-.02-41.31-.04-61.96-.06s-41.48-.04-62.21-.06c-20.65-.02-41.31-.04-61.96-.06-20.74-.02-41.48-.04-62.21-.06-10.33-.01-20.65-.02-30.98-.03-5.16,0-10.33-.01-15.49-.02-4.86,0-9.74-.12-14.6.1C12.49.34,7.96.88,3.77,2.46c-1.07.4-2.51.78-3.12,1.82C.11,5.19.12,6.55.23,7.58c.22,2.24,1.16,4.27,2.75,5.88,2.27,2.29,5.81-1.25,3.54-3.54h0Z"/>
  </g>
</svg>